<?xml version="1.0" encoding="utf-8"?>
<!-- Generator: Adobe Illustrator 16.0.3, SVG Export Plug-In . SVG Version: 6.00 Build 0)  -->
<!DOCTYPE svg PUBLIC "-//W3C//DTD SVG 1.1//EN" "http://www.w3.org/Graphics/SVG/1.1/DTD/svg11.dtd">
<svg version="1.1" xmlns="http://www.w3.org/2000/svg" xmlns:xlink="http://www.w3.org/1999/xlink" x="0px" y="0px" width="24px"
	 height="24px" viewBox="0 0 24 24" enable-background="new 0 0 24 24" xml:space="preserve">
<g id="Outline_Icons_1_">
	<g id="Outline_Icons">
		<g>
			<g>
				<polygon fill="none" stroke="#000000" stroke-linecap="round" stroke-linejoin="round" stroke-miterlimit="10" points="
					16.999,22.499 13.499,23.499 14.499,19.999 20.999,13.499 23.499,15.999 				"/>
				
					<line fill="none" stroke="#000000" stroke-linejoin="round" stroke-miterlimit="10" x1="18.999" y1="15.499" x2="21.499" y2="17.999"/>
				
					<line fill="none" stroke="#000000" stroke-linecap="round" stroke-linejoin="round" stroke-miterlimit="10" x1="14.499" y1="19.999" x2="16.999" y2="22.499"/>
			</g>
			<path fill="none" stroke="#000000" stroke-linecap="round" stroke-linejoin="round" stroke-miterlimit="10" d="M16.432,14.464
				c-0.777-0.256-3.932-1.679-4.932-2v-2.5c0,0,1.5-0.619,1.5-3c1,0,1-2.071,0-2.071c0-0.233,0.896-1.606,0.568-2.929
				c-0.475-1.905-6.061-1.905-6.534,0C4.666,1.488,6,4.646,6,4.964c-0.5,0-0.5,2,0,2c0,2.381,1.5,3,1.5,3v2.5
				c-2.5,1.055-6.02,1.756-6.432,3C0.594,16.894,0.5,19.5,0.5,19.5H11"/>
		</g>
	</g>
	<g id="New_icons_1_">
	</g>
</g>
<g id="Invisible_Shape">
	<rect fill="none" width="24" height="24"/>
</g>
</svg>
