<?xml version="1.0" encoding="UTF-8" standalone="no"?>
<!DOCTYPE svg PUBLIC "-//W3C//DTD SVG 1.1//EN" "http://www.w3.org/Graphics/SVG/1.1/DTD/svg11.dtd">
<!-- Generiert durch Microsoft Visio, SVG Export Risktech.svg network-world -->
<svg xmlns="http://www.w3.org/2000/svg" xmlns:xlink="http://www.w3.org/1999/xlink" xmlns:ev="http://www.w3.org/2001/xml-events"
		xmlns:v="http://schemas.microsoft.com/visio/2003/SVGExtensions/" width="0.25in" height="0.25in" viewBox="0 0 18 18"
		xml:space="preserve" color-interpolation-filters="sRGB" class="st3">
	<v:documentProperties v:langID="3079" v:viewMarkup="false"/>

	<style type="text/css">
	<![CDATA[
		.st1 {fill:#005aa1;stroke:none;stroke-linecap:butt;stroke-width:0.75}
		.st2 {fill:none;stroke:none;stroke-linecap:butt;stroke-width:0.75}
		.st3 {fill:none;fill-rule:evenodd;font-size:12px;overflow:visible;stroke-linecap:square;stroke-miterlimit:3}
	]]>
	</style>

	<g v:mID="0" v:index="1" v:groupContext="foregroundPage">
		<title>network-world</title>
		<v:pageProperties v:drawingScale="1" v:pageScale="1" v:drawingUnits="19" v:shadowOffsetX="9" v:shadowOffsetY="-9"/>
		<g id="group1-1" transform="translate(-0.0285,0.0945)" v:mID="1" v:groupContext="group">
			<title>Tabelle.1</title>
			<g id="shape2-2" v:mID="2" v:groupContext="shape" transform="translate(15.741,-10.0072)">
				<title>Tabelle.2</title>
				<path d="M0 16.87 C0.42 17.12 0.74 17.52 0.87 18 C1.67 17.83 1.89 17.72 2.18 17.57 C1.96 16.16 1.43 14.86 0.64 13.74
							 C0.55 14.64 0.34 15.73 0 16.87 Z" class="st1"/>
			</g>
			<g id="shape3-4" v:mID="3" v:groupContext="shape" transform="translate(2.31675,-5.34525)">
				<title>Tabelle.3</title>
				<path d="M0 8.28 C1.05 9.47 1.81 11.03 2.14 12.72 C3.26 12.8 4.14 13.89 3.78 15.11 C4.69 15.71 5.6 16.54 6.06 16.99
							 C6.96 16.54 7.97 17.09 8.17 18 C8.29 17.99 8.41 17.99 8.53 17.98 C8.56 16.95 9.6 16.24 10.58 16.63 C10.87
							 16.19 11.12 15.72 11.34 15.3 C10.95 14.99 10.68 14.53 10.64 14 C8.67 13.54 6.93 12.43 5.67 10.84 C4.44
							 11.32 3.15 10.43 3.11 9.16 L3.09 9.16 C2.08 8.88 1.14 8.42 0.37 7.88 C0.24 8 0.12 8.14 0 8.28 Z"
						class="st1"/>
			</g>
			<g id="shape4-6" v:mID="4" v:groupContext="shape" transform="translate(2.55675,-0.6)">
				<title>Tabelle.4</title>
				<path d="M6.99 14.99 C6.13 15.3 5.27 14.8 5.04 13.99 C4.04 13.94 3.06 13.84 2.05 13.68 C1.87 14.1 1.45 14.41 0.92
							 14.37 C0.68 14.81 0.33 15.36 0 15.74 C0.97 16.75 2.17 17.53 3.52 18 C5.03 17.19 6.18 16.37 7.25 15.41
							 C7.17 15.27 7.08 15.13 6.99 14.99 Z" class="st1"/>
			</g>
			<g id="shape5-8" v:mID="5" v:groupContext="shape" transform="translate(13.5045,-5.68425)">
				<title>Tabelle.5</title>
				<path d="M4.15 17.14 C4.49 16 4.56 15.05 4.5 14.04 C4.13 14.21 3.55 14.36 3.15 14.43 C3 15.49 1.97 16.28 0.83 15.97
							 C0.59 16.43 0.31 16.93 0 17.42 C0.14 17.59 0.24 17.78 0.29 18 C1.51 17.81 2.75 17.55 4.15 17.14 Z"
						class="st1"/>
			</g>
			<g id="shape6-10" v:mID="6" v:groupContext="shape" transform="translate(3.25275,-14.9303)">
				<title>Tabelle.6</title>
				<path d="M2.3 18 C2.45 17.62 2.72 17.3 3.07 17.09 C2.89 16.37 2.85 16.02 2.78 15.36 C1.76 15.72 0.82 16.26 0 16.94
							 C0.68 17.4 1.46 17.76 2.3 18 Z" class="st1"/>
			</g>
			<g id="shape7-12" v:mID="7" v:groupContext="shape" transform="translate(4.28775,-5.36025)">
				<title>Tabelle.7</title>
				<path d="M0.16 16.46 C0.11 16.72 0.05 16.96 0 17.16 C0.16 17.3 0.28 17.48 0.34 17.68 C1.34 17.84 2.31 17.95 3.29
							 18 C3.33 17.82 3.4 17.64 3.51 17.49 C2.91 16.92 2.15 16.26 1.46 15.79 C1.14 16.17 0.68 16.42 0.16 16.46
							 Z" class="st1"/>
			</g>
			<g id="shape8-14" v:mID="8" v:groupContext="shape" transform="translate(8.613,-10.0957)">
				<title>Tabelle.8</title>
				<path d="M0 15.18 C1.13 16.58 2.68 17.57 4.42 18 C4.68 17.21 5.46 16.61 6.42 16.73 C6.76 15.57 7.05 14.18 7.06 12.96
							 C6.61 12.46 6.11 12.01 5.55 11.62 C4.51 12.76 2.6 13.83 0.53 14.14 C0.46 14.54 0.28 14.9 0 15.18 Z"
						class="st1"/>
			</g>
			<g id="shape9-16" v:mID="9" v:groupContext="shape" transform="translate(6.76725,-14.7105)">
				<title>Tabelle.9</title>
				<path d="M0.26 16.61 C1.27 16.47 2.12 17.12 2.34 18 C4.12 17.72 5.82 16.79 6.75 15.83 C4.79 14.69 2.42 14.28 0 14.91
							 C0.06 15.59 0.1 15.95 0.26 16.61 Z" class="st1"/>
			</g>
			<g id="shape10-18" v:mID="10" v:groupContext="shape" transform="translate(7.08375,7.10543E-15)">
				<title>Tabelle.10</title>
				<path d="M3.1 15.48 C2.15 16.31 1.12 17.05 0.01 17.68 C0.01 17.68 0 17.69 0 17.69 C1.41 18 2.72 17.97 4.07 17.64
							 C3.8 16.89 3.66 16.49 3.1 15.48 Z" class="st1"/>
			</g>
			<g id="shape11-20" v:mID="11" v:groupContext="shape" transform="translate(10.7648,-0.56325)">
				<title>Tabelle.11</title>
				<path d="M3.02 13.64 C2.78 14.51 1.8 15.02 0.92 14.58 C0.62 14.91 0.32 15.23 0 15.53 C0.68 16.73 0.84 17.25 1.11
							 18 C3.59 17.17 5.59 15.29 6.59 12.88 C5.37 13.21 4.34 13.44 3.02 13.64 Z" class="st1"/>
			</g>
			<g id="shape12-22" v:mID="12" v:groupContext="shape" transform="translate(0.135,-9.80625)">
				<title>Tabelle.12</title>
				<path d="M2.62 18 C2.84 17.66 3.18 17.41 3.57 17.27 C3.27 15.73 2.58 14.35 1.7 13.33 C0.82 14.5 0.22 15.89 0 17.4
							 C0.75 17.52 1.36 17.59 2.62 18 Z" class="st1"/>
			</g>
			<g id="shape13-24" v:mID="13" v:groupContext="shape" transform="translate(2.22322E-14,-6.07125)">
				<title>Tabelle.13</title>
				<path d="M0.35 17.34 C1.04 17.62 1.96 17.83 2.68 17.99 L2.71 18 C2.92 17.76 3.22 17.6 3.56 17.6 C3.57 17.6 3.58 17.6
							 3.58 17.6 C3.62 17.44 3.66 17.27 3.7 17.07 C2.86 16.78 2.29 15.92 2.47 14.96 C1.38 14.61 0.81 14.53
							 0.06 14.41 C0 15.33 0.04 16.2 0.35 17.34 Z" class="st1"/>
			</g>
			<g id="shape14-26" v:mID="14" v:groupContext="shape" transform="translate(10.161,-3.696)">
				<title>Tabelle.14</title>
				<path d="M0.86 17.07 C0.67 17.08 0.49 17.09 0.3 17.1 C0.24 17.31 0.14 17.49 0 17.65 C0.07 17.77 0.14 17.89 0.21 18
							 C0.47 17.75 0.71 17.49 0.95 17.23 C0.92 17.18 0.89 17.12 0.86 17.07 Z" class="st1"/>
			</g>
			<g id="shape15-28" v:mID="15" v:groupContext="shape" transform="translate(0.65175,-3.4215)">
				<title>Tabelle.15</title>
				<path d="M2.13 16.89 C1.92 16.68 1.78 16.4 1.78 16.08 C1.78 16.07 1.79 16.06 1.79 16.06 C1.15 15.91 0.62 15.79 0
							 15.6 C0.34 16.47 0.81 17.28 1.4 18 C1.66 17.7 1.94 17.23 2.13 16.89 Z" class="st1"/>
			</g>
		</g>
		<g id="shape16-30" v:mID="16" v:groupContext="shape">
			<title>Tabelle.16</title>
			<rect x="0" y="0" width="18" height="18" class="st2"/>
		</g>
	</g>
</svg>
