<?xml version="1.0" encoding="utf-8"?>
<!-- Generator: Adobe Illustrator 16.0.3, SVG Export Plug-In . SVG Version: 6.00 Build 0)  -->
<!DOCTYPE svg PUBLIC "-//W3C//DTD SVG 1.1//EN" "http://www.w3.org/Graphics/SVG/1.1/DTD/svg11.dtd">
<svg version="1.1" xmlns="http://www.w3.org/2000/svg" xmlns:xlink="http://www.w3.org/1999/xlink" x="0px" y="0px" width="24px"
	 height="24px" viewBox="0 0 24 24" enable-background="new 0 0 24 24" xml:space="preserve">
<g id="Outline_Icons_1_">
	<g id="Outline_Icons">
		<g>
			
				<line fill="none" stroke="#000000" stroke-linecap="round" stroke-linejoin="round" stroke-miterlimit="10" x1="0.5" y1="23.5" x2="22.448" y2="23.5"/>
			
				<line fill="none" stroke="#000000" stroke-linecap="round" stroke-linejoin="round" stroke-miterlimit="10" x1="11.479" y1="23.5" x2="11.479" y2="18.5"/>
			<g>
				<path fill="none" stroke="#000000" stroke-linejoin="round" stroke-miterlimit="10" d="M20.479,9.467
					c0,4.988-4.041,9.033-9.025,9.033s-8.975-4.206-8.975-9.196c0-4.857,3.811-8.601,8.613-8.795
					c0.129-0.005,0.26-0.009,0.391-0.009C16.468,0.5,20.479,4.478,20.479,9.467z"/>
				<path fill="none" stroke="#000000" stroke-linejoin="round" stroke-miterlimit="10" d="M11.092,0.509
					c-4.695,5.086-4.695,11.723,0,17.984"/>
				<path fill="none" stroke="#000000" stroke-linejoin="round" stroke-miterlimit="10" d="M11.875,0.509
					c4.695,5.086,4.695,11.721,0,17.981"/>
				
					<line fill="none" stroke="#000000" stroke-linejoin="round" stroke-miterlimit="10" x1="3.481" y1="13.5" x2="19.531" y2="13.5"/>
				<line fill="none" stroke="#000000" stroke-linejoin="round" stroke-miterlimit="10" x1="3.979" y1="4.5" x2="18.979" y2="4.5"/>
				<line fill="none" stroke="#000000" stroke-linejoin="round" stroke-miterlimit="10" x1="2.479" y1="9.5" x2="20.479" y2="9.5"/>
			</g>
		</g>
	</g>
	<g id="New_icons_1_">
	</g>
</g>
<g id="Invisible_Shape">
	<rect fill="none" width="24" height="24"/>
</g>
</svg>
