<?xml version="1.0" encoding="utf-8"?>
<!-- Generator: Adobe Illustrator 16.0.3, SVG Export Plug-In . SVG Version: 6.00 Build 0)  -->
<!DOCTYPE svg PUBLIC "-//W3C//DTD SVG 1.1//EN" "http://www.w3.org/Graphics/SVG/1.1/DTD/svg11.dtd">
<svg version="1.1" xmlns="http://www.w3.org/2000/svg" xmlns:xlink="http://www.w3.org/1999/xlink" x="0px" y="0px" width="24px"
	 height="24px" viewBox="0 0 24 24" enable-background="new 0 0 24 24" xml:space="preserve">
<g id="Outline_Icons">
	<g>
		<path fill="none" stroke="#000000" stroke-linecap="round" stroke-linejoin="round" stroke-miterlimit="10" d="M14.288,9.339
			c-1.562-1.562-1.562-4.095,0-5.657L11.107,0.5L8.539,3.067c-1.355-2.292-4.45-2.621-6.271-0.8c-1.82,1.82-1.492,4.918,0.8,6.271
			L0.5,11.106l3.182,3.182c1.562-1.562,4.095-1.562,5.657,0c1.562,1.562,1.562,4.095,0,5.657l3.182,3.182l2.567-2.567
			c1.361,2.298,4.456,2.616,6.271,0.8c1.83-1.829,1.48-4.929-0.8-6.271l2.567-2.567l-3.182-3.182
			C18.384,10.9,15.851,10.9,14.288,9.339z"/>
	</g>
</g>
<g id="Invisible_Shape">
	<rect fill="none" width="24" height="24"/>
</g>
</svg>
